<svg xmlns="http://www.w3.org/2000/svg" width="60" height="60" fill="none" viewBox="0 0 162 173">
	<path stroke="red" stroke-linecap="round" stroke-width="3" d="M34.996 2c-2.11 3.083-4.802 5.111-7.268 7.889-4.269 4.807-7.495 10.562-11.406 15.667-5.143 6.713-9.22 15.55-11.517 23.666-4.591 16.22-2.926 36.843.559 53.167C8.998 119.414 32.341 125.537 47.297 125c19.712-.708 33.61-15.533 43.442-30.444 10-15.168-4.101-33.488-20.408-34.5-20.89-1.298-24.265 29.721-24.265 45.277 0 20.098 24.484 32.729 41.374 38.723 5.65 2.005 10.625 5.168 16.158 7.388 6.216 2.495 13.143 3.12 19.736 4.056 11.933 1.694 24.381 2.5 36.453 2.5" />
	<path stroke="red" stroke-linecap="round" stroke-width="3" d="M150.5 145c1.068 1.068 1.882 2.487 2.875 3.653.937 1.1 2.063 2.109 2.819 3.347.821 1.342 2.479 2.052 3.056 3.639.257.707.974 1.4 1 2.167.041 1.192-.838 2.386-1.806 3.083-1.682 1.211-3.485 2.252-5.194 3.486-2.065 1.492-3.213 3.55-4.611 5.583-1.212 1.763-1.142-3.065-1.139-3.402.015-1.469.452-2.709.722-4.125.135-.71-.023-1.462.084-2.181.184-1.244.176-2.944.597-4.111.308-.857.805-1.245.847-2.222.03-.689.192-1.291.639-1.82.934-1.103.435-2.351 1.111-3.403.472-.734 1.268-1.444 0-1.444" />
</svg>
