<svg width="60" height="60" viewBox="0 0 162 173" fill="none" xmlns="http://www.w3.org/2000/svg">
	<path d="M34.9963 2C32.8865 5.08294 30.1945 7.11127 27.728 9.88889C23.4595 14.6959 20.2333 20.4514 16.3224 25.5556C11.1785 32.2688 7.10211 41.1063 4.80495 49.2222C0.213834 65.4427 1.87938 86.0652 5.36405 102.389C8.9984 119.414 32.3407 125.537 47.2965 125C67.0091 124.292 80.9068 109.467 90.7385 94.5556C100.739 79.3878 86.6378 61.0682 70.3313 60.0556C49.4414 58.7582 46.0665 89.7773 46.0665 105.333C46.0665 125.431 70.5499 138.062 87.4398 144.056C93.0908 146.061 98.0651 149.224 103.598 151.444C109.814 153.939 116.741 154.564 123.334 155.5C135.267 157.194 147.715 158 159.787 158" stroke="red" stroke-width="3" stroke-linecap="round" />
	<path d="M150.5 145C151.568 146.068 152.382 147.487 153.375 148.653C154.312 149.753 155.438 150.762 156.194 152C157.015 153.342 158.673 154.052 159.25 155.639C159.507 156.346 160.224 157.039 160.25 157.806C160.291 158.998 159.412 160.192 158.444 160.889C156.762 162.1 154.959 163.141 153.25 164.375C151.185 165.867 150.037 167.925 148.639 169.958C147.427 171.721 147.497 166.893 147.5 166.556C147.515 165.087 147.952 163.847 148.222 162.431C148.357 161.721 148.199 160.969 148.306 160.25C148.49 159.006 148.482 157.306 148.903 156.139C149.211 155.282 149.708 154.894 149.75 153.917C149.78 153.228 149.942 152.626 150.389 152.097C151.323 150.994 150.824 149.746 151.5 148.694C151.972 147.96 152.768 147.25 151.5 147.25" stroke="red" stroke-width="3" stroke-linecap="round" />
	<path d="M150.25 145.5C150.25 147.156 149.75 148.76 149.75 150.5C149.75 152.253 149.61 154.023 149.306 155.75C148.606 159.713 148.75 163.688 148.75 167.75" stroke="red" stroke-width="3" stroke-linecap="round" />
	<path d="M148.75 170.75C150.627 168.972 152.354 166.725 153.597 164.514C154.519 162.874 155.594 160.635 157.5 160" stroke="red" stroke-width="3" stroke-linecap="round" />
	<path d="M156.75 162.5C156.613 163.596 154.309 164.893 153.5 165.75C152.597 166.706 151.483 167.529 150.75 168.75" stroke="red" stroke-width="3" stroke-linecap="round" />
	<path d="M153.75 152.5C154.01 155.102 155.75 157.401 155.75 160C155.75 160.19 155.841 160.948 155.694 160.389C155.388 159.223 154.902 158.101 154.625 156.931C154.24 155.306 153.75 153.433 153.75 151.75C153.75 151.508 153.772 150.639 153.444 151.333C152.796 152.707 152.688 154.352 152.347 155.819C152.034 157.167 151.669 158.495 151.375 159.847C151.09 161.159 151.25 159.858 151.25 159.194C151.25 158.29 151.087 157.203 151.25 156.306C151.288 156.095 152.73 157.986 152.861 158.264C153.507 159.631 153.5 160.972 153.5 162.444C153.5 164.008 153.198 164.676 152.389 166C151.635 167.233 151.222 167.196 151.25 165.639C151.271 164.477 151.325 163.013 151.625 161.875C151.934 160.703 152.452 160.391 153.083 159.306C153.813 158.051 154.246 156.44 155.556 155.556C156.978 154.596 157.75 155.452 157.75 157" stroke="red" stroke-width="3" stroke-linecap="round" />
	<path d="M147.5 162.75C147.5 159.875 147.5 157 147.5 154.125C147.5 152.754 148.363 150.834 148.806 149.556C149.261 148.239 149.614 147.022 150.25 145.75" stroke="red" stroke-width="3" stroke-linecap="round" />
</svg>
